<svg xmlns="http://www.w3.org/2000/svg" viewBox="0 0 44 44"><title>bank@1x</title><g id="Layer_2" data-name="Layer 2"><g id="General"><g id="Old_Building_2x.png" data-name="Old Building@2x.png"><path d="M43,18a1,1,0,0,0,1-1V13a1,1,0,0,0-.51-.86h0l-21-12h0a.89.89,0,0,0-1,0h0l-21,12h0A1,1,0,0,0,0,13v4a1,1,0,0,0,1,1H4V36H3a1,1,0,0,0-.94.69h0l-2,6h0A1,1,0,0,0,0,43a1,1,0,0,0,1,1H43a1,1,0,0,0,1-1,1,1,0,0,0-.06-.31h0l-2-6h0A1,1,0,0,0,41,36H40V18ZM22,2.15,39.23,12H4.77ZM40.28,38l1.33,4H2.39l1.33-4ZM6,36V18h4V36Zm6,0V18h4V36Zm6,0V18h8V36Zm10,0V18h4V36Zm6,0V18h4V36ZM2,16V14H42v2Z"/></g></g></g></svg>